<svg xmlns="http://www.w3.org/2000/svg" version="1.1" xmlns:xlink="http://www.w3.org/1999/xlink" xmlns:svgjs="http://svgjs.dev/svgjs" width="1440" height="250" preserveAspectRatio="none" viewBox="0 0 1440 250"><g mask="url(&quot;#SvgjsMask1006&quot;)" fill="none"><path d="M41 250L291 0L622.5 0L372.5 250z" fill="url(&quot;#SvgjsLinearGradient1007&quot;)"></path><path d="M255.60000000000002 250L505.6 0L783.1 0L533.1 250z" fill="url(&quot;#SvgjsLinearGradient1007&quot;)"></path><path d="M500.20000000000005 250L750.2 0L990.2 0L740.2 250z" fill="url(&quot;#SvgjsLinearGradient1007&quot;)"></path><path d="M717.8000000000001 250L967.8000000000001 0L1020.3000000000001 0L770.3000000000001 250z" fill="url(&quot;#SvgjsLinearGradient1007&quot;)"></path><path d="M1437 250L1187 0L1136 0L1386 250z" fill="url(&quot;#SvgjsLinearGradient1008&quot;)"></path><path d="M1181.4 250L931.4000000000001 0L791.9000000000001 0L1041.9 250z" fill="url(&quot;#SvgjsLinearGradient1008&quot;)"></path><path d="M939.8 250L689.8 0L635.8 0L885.8 250z" fill="url(&quot;#SvgjsLinearGradient1008&quot;)"></path><path d="M724.1999999999999 250L474.19999999999993 0L216.19999999999993 0L466.19999999999993 250z" fill="url(&quot;#SvgjsLinearGradient1008&quot;)"></path><path d="M1273.9396728604297 250L1440 83.93967286042968L1440 250z" fill="url(&quot;#SvgjsLinearGradient1007&quot;)"></path><path d="M0 250L166.06032713957032 250L 0 83.93967286042968z" fill="url(&quot;#SvgjsLinearGradient1008&quot;)"></path></g><defs><mask id="SvgjsMask1006"><rect width="1440" height="250" fill="#ffffff"></rect></mask><linearGradient x1="0%" y1="100%" x2="100%" y2="0%" id="SvgjsLinearGradient1007"><stop stop-color="rgba(255, 84, 0, 0.2)" offset="0"></stop><stop stop-opacity="0" stop-color="rgba(255, 84, 0, 0.2)" offset="0.66"></stop></linearGradient><linearGradient x1="100%" y1="100%" x2="0%" y2="0%" id="SvgjsLinearGradient1008"><stop stop-color="rgba(255, 84, 0, 0.2)" offset="0"></stop><stop stop-opacity="0" stop-color="rgba(255, 84, 0, 0.2)" offset="0.66"></stop></linearGradient></defs></svg>